<svg width="24" height="24" viewBox="0 0 24 24" fill="none" xmlns="http://www.w3.org/2000/svg">
<path d="M12 2.163C15.112 2.163 15.495 2.176 16.71 2.23C17.915 2.285 18.665 2.505 19.34 2.77C20.015 3.035 20.59 3.485 21.165 4.06C21.74 4.635 22.19 5.21 22.455 5.885C22.72 6.56 22.94 7.31 22.995 8.52C23.049 9.735 23.062 10.118 23.062 13.23C23.062 16.342 23.049 16.725 22.995 17.94C22.94 19.145 22.72 19.895 22.455 20.57C22.19 21.245 21.74 21.82 21.165 22.395C20.59 22.97 20.015 23.42 19.34 23.685C18.665 23.95 17.915 24.17 16.71 24.225C15.495 24.279 15.112 24.292 12 24.292C8.888 24.292 8.505 24.279 7.29 24.225C6.085 24.17 5.335 23.95 4.66 23.685C3.985 23.42 3.41 22.97 2.835 22.395C2.26 21.82 1.81 21.245 1.545 20.57C1.28 19.895 1.06 19.145 1.005 17.94C0.951 16.725 0.938 16.342 0.938 13.23C0.938 10.118 0.951 9.735 1.005 8.52C1.06 7.31 1.28 6.56 1.545 5.885C1.81 5.21 2.26 4.635 2.835 4.06C3.41 3.485 3.985 3.035 4.66 2.77C5.335 2.505 6.085 2.285 7.29 2.23C8.505 2.176 8.888 2.163 12 2.163ZM12 6.643C8.877 6.643 6.388 9.132 6.388 12.255C6.388 15.378 8.877 17.867 12 17.867C15.123 17.867 17.612 15.378 17.612 12.255C17.612 9.132 15.123 6.643 12 6.643ZM12 15.54C10.198 15.54 8.718 14.06 8.718 12.255C8.718 10.45 10.198 8.97 12 8.97C13.802 8.97 15.282 10.45 15.282 12.255C15.282 14.06 13.802 15.54 12 15.54ZM18.736 6.012C18.175 6.012 17.726 5.563 17.726 5.002C17.726 4.441 18.175 3.992 18.736 3.992C19.297 3.992 19.746 4.441 19.746 5.002C19.746 5.563 19.297 6.012 18.736 6.012Z" fill="currentColor"/>
</svg> 